<svg width="256" height="256" viewBox="0 0 256 256" xmlns="http://www.w3.org/2000/svg">
  <defs>
    <linearGradient id="sea" x1="0%" y1="0%" x2="100%" y2="100%">
      <stop offset="0%" stop-color="#f8fbfd" />
      <stop offset="100%" stop-color="#eef5f8" />
    </linearGradient>
    <linearGradient id="wave" x1="0%" y1="0%" x2="100%" y2="0%">
      <stop offset="0%" stop-color="#7a97a8" />
      <stop offset="100%" stop-color="#b48a5a" />
    </linearGradient>
  </defs>

  <rect width="256" height="256" rx="60" fill="url(#sea)" />

  <path
    d="M34 176C56 164 76 158 97 158C120 158 138 168 159 168C180 168 198 161 222 145V192H34V176Z"
    fill="#dde9ee"
  />
  <path
    d="M40 162C58 151 75 146 92 146C113 146 126 156 147 156C165 156 181 149 206 133"
    fill="none"
    stroke="url(#wave)"
    stroke-width="8"
    stroke-linecap="round"
  />

  <path
    d="M133 52C165 52 189 74 189 104C189 130 171 151 144 165L116 179C107 184 96 177 96 167V142C76 132 64 114 64 94C64 70 83 52 108 52H133Z"
    fill="#ffffff"
    stroke="#273744"
    stroke-width="10"
    stroke-linejoin="round"
  />

  <path
    d="M92 92C102 84 113 80 126 80C139 80 149 84 160 94"
    fill="none"
    stroke="#273744"
    stroke-width="8"
    stroke-linecap="round"
  />
  <path
    d="M90 112C101 104 114 100 127 100C140 100 152 104 163 113"
    fill="none"
    stroke="#7a97a8"
    stroke-width="8"
    stroke-linecap="round"
  />
  <path
    d="M92 132C103 124 115 120 128 120C140 120 151 124 160 131"
    fill="none"
    stroke="#b48a5a"
    stroke-width="8"
    stroke-linecap="round"
  />
</svg>
